<mxfile host="app.diagrams.net" modified="2023-11-24T03:08:07.266Z" agent="Mozilla/5.0 (Macintosh; Intel Mac OS X 10_15_7) AppleWebKit/537.36 (KHTML, like Gecko) Chrome/118.0.0.0 Safari/537.36" version="22.1.3" etag="e4x5owg3KNtb9WTPm1Fl" type="github">
  <diagram name="Page-1" id="9XzTU4nA0BEIE6OY4VFh">
    <mxGraphModel>
      <root>
        <mxCell id="0" />
        <mxCell id="1" parent="0" />
      </root>
    </mxGraphModel>
  </diagram>
</mxfile>
